<svg xmlns="http://www.w3.org/2000/svg" width="512" height="512" viewBox="0 0 512 512" role="img"><metadata><rdf:RDF xmlns:rdf="http://www.w3.org/1999/02/22-rdf-syntax-ns#" xmlns:dc="http://purl.org/dc/elements/1.1/"><rdf:Description><dc:creator>RealFaviconGenerator</dc:creator><dc:source>https://realfavicongenerator.net</dc:source></rdf:Description></rdf:RDF></metadata><title>Montre de Vie</title><desc>Sablier vert sur fond noir — Montre de Vie</desc><defs>
  <linearGradient id="sandGrad" x1="0" y1="0" x2="0" y2="1">
    <stop offset="0%" stop-color="#a8f0d0"></stop>
    <stop offset="100%" stop-color="#2d9e72"></stop>
  </linearGradient>
  <linearGradient id="glassGrad" x1="0" y1="0" x2="0" y2="1">
    <stop offset="0%" stop-color="#1a6b4a"></stop>
    <stop offset="50%" stop-color="#2d9e72"></stop>
    <stop offset="100%" stop-color="#1a6b4a"></stop>
  </linearGradient>
  <linearGradient id="rimGrad" x1="0" y1="0" x2="0" y2="1">
    <stop offset="0%" stop-color="#a8f0d0"></stop>
    <stop offset="100%" stop-color="#2d9e72"></stop>
  </linearGradient>
</defs><rect width="512" height="512" rx="96" fill="#0a0f0c"></rect><circle cx="256" cy="256" r="200" fill="none" stroke="#1a6b4a" stroke-width="4"></circle><circle cx="256" cy="256" r="200" fill="none" stroke="url(#rimGrad)" stroke-width="7" stroke-linecap="round" stroke-dasharray="1257" stroke-dashoffset="440" transform="rotate(-90 256 256)"></circle><g stroke="#2d9e72" stroke-width="2.5" opacity="0.5">
  <line x1="256" y1="42" x2="256" y2="62"></line>
  <line x1="256" y1="450" x2="256" y2="470"></line>
  <line x1="468" y1="256" x2="448" y2="256"></line>
  <line x1="44" y1="256" x2="64" y2="256"></line>
  <line x1="406" y1="106" x2="392" y2="120"></line>
  <line x1="106" y1="106" x2="120" y2="120"></line>
  <line x1="406" y1="406" x2="392" y2="392"></line>
  <line x1="106" y1="406" x2="120" y2="392"></line>
</g><rect x="148" y="128" width="216" height="18" rx="9" fill="url(#rimGrad)"></rect><rect x="148" y="366" width="216" height="18" rx="9" fill="url(#rimGrad)"></rect><polygon points="155,146 256,238 357,146" fill="#131a16" stroke="url(#glassGrad)" stroke-width="2"></polygon><polygon points="175,146 256,210 337,146" fill="url(#sandGrad)" opacity="0.65"></polygon><polygon points="155,366 256,274 357,366" fill="#131a16" stroke="url(#glassGrad)" stroke-width="2"></polygon><polygon points="185,366 256,308 327,366" fill="url(#sandGrad)" opacity="0.9"></polygon><polygon points="155,366 256,290 357,366" fill="url(#sandGrad)" opacity="0.25"></polygon><ellipse cx="256" cy="257" rx="5" ry="10" fill="url(#sandGrad)" opacity="0.9"></ellipse><circle cx="256" cy="256" r="6" fill="#a8f0d0" opacity="0.95"></circle></svg>